<?xml version="1.0" standalone="no"?>
<!DOCTYPE svg PUBLIC "-//W3C//DTD SVG 20010904//EN"
 "http://www.w3.org/TR/2001/REC-SVG-20010904/DTD/svg10.dtd">
<svg version="1.0" xmlns="http://www.w3.org/2000/svg"
 width="1280.000000pt" height="1277.000000pt" viewBox="0 0 1280.000000 1277.000000"
 preserveAspectRatio="xMidYMid meet">
<metadata>
Created by potrace 1.15, written by Peter Selinger 2001-2017
</metadata>
<g transform="translate(0.000000,1277.000000) scale(0.100000,-0.100000)"
fill="#000000" stroke="none">
<path d="M1492 12632 c-174 -882 -688 -2559 -1376 -4484 -58 -163 -106 -300
-106 -304 0 -4 64 55 143 132 274 269 534 460 854 626 207 108 469 217 484
201 3 -5 12 -57 18 -118 34 -315 129 -768 251 -1190 409 -1416 1176 -2924
2097 -4122 1530 -1991 3425 -3149 5478 -3347 83 -8 188 -17 235 -21 l85 -6
-70 62 c-131 115 -335 330 -415 437 -326 434 -232 743 283 933 308 114 809
192 1457 229 323 18 982 31 1387 28 399 -3 497 3 248 16 -71 4 -242 18 -380
32 -2193 218 -4255 871 -5935 1878 -983 589 -1831 1315 -2464 2109 -741 930
-1224 1990 -1420 3118 l-6 36 97 -18 c449 -84 985 -267 1482 -505 85 -41 155
-74 157 -74 1 0 -50 71 -115 158 -518 697 -1027 1447 -1418 2092 -513 845
-850 1551 -978 2047 -19 74 -35 143 -35 154 0 10 -3 19 -7 19 -5 0 -18 -53
-31 -118z"/>
</g>
</svg>
